<svg id="visual" viewBox="0 0 900 150" width="900" height="150" xmlns="http://www.w3.org/2000/svg" xmlns:xlink="http://www.w3.org/1999/xlink" version="1.1"><path d="M0 33L90 33L90 45L180 45L180 48L270 48L270 36L360 36L360 57L450 57L450 39L540 39L540 64L630 64L630 40L720 40L720 58L810 58L810 58L900 58L900 45L900 0L900 0L810 0L810 0L720 0L720 0L630 0L630 0L540 0L540 0L450 0L450 0L360 0L360 0L270 0L270 0L180 0L180 0L90 0L90 0L0 0Z" fill="#1a0f24"></path><path d="M0 48L90 48L90 66L180 66L180 73L270 73L270 62L360 62L360 78L450 78L450 57L540 57L540 84L630 84L630 70L720 70L720 76L810 76L810 76L900 76L900 67L900 43L900 56L810 56L810 56L720 56L720 38L630 38L630 62L540 62L540 37L450 37L450 55L360 55L360 34L270 34L270 46L180 46L180 43L90 43L90 31L0 31Z" fill="#1e112c"></path><path d="M0 69L90 69L90 86L180 86L180 93L270 93L270 84L360 84L360 93L450 93L450 72L540 72L540 99L630 99L630 85L720 85L720 91L810 91L810 85L900 85L900 90L900 65L900 74L810 74L810 74L720 74L720 68L630 68L630 82L540 82L540 55L450 55L450 76L360 76L360 60L270 60L270 71L180 71L180 64L90 64L90 46L0 46Z" fill="#231233"></path><path d="M0 111L90 111L90 124L180 124L180 123L270 123L270 123L360 123L360 123L450 123L450 120L540 120L540 124L630 124L630 109L720 109L720 114L810 114L810 114L900 114L900 121L900 88L900 83L810 83L810 89L720 89L720 83L630 83L630 97L540 97L540 70L450 70L450 91L360 91L360 82L270 82L270 91L180 91L180 84L90 84L90 67L0 67Z" fill="#27123b"></path><path d="M0 133L90 133L90 142L180 142L180 136L270 136L270 138L360 138L360 133L450 133L450 133L540 133L540 138L630 138L630 133L720 133L720 139L810 139L810 135L900 135L900 141L900 119L900 112L810 112L810 112L720 112L720 107L630 107L630 122L540 122L540 118L450 118L450 121L360 121L360 121L270 121L270 121L180 121L180 122L90 122L90 109L0 109Z" fill="#2c1343"></path><path d="M0 151L90 151L90 151L180 151L180 151L270 151L270 151L360 151L360 151L450 151L450 151L540 151L540 151L630 151L630 151L720 151L720 151L810 151L810 151L900 151L900 151L900 139L900 133L810 133L810 137L720 137L720 131L630 131L630 136L540 136L540 131L450 131L450 131L360 131L360 136L270 136L270 134L180 134L180 140L90 140L90 131L0 131Z" fill="#30144b"></path></svg>