<?xml version="1.0" standalone="no"?>
<!DOCTYPE svg PUBLIC "-//W3C//DTD SVG 20010904//EN"
 "http://www.w3.org/TR/2001/REC-SVG-20010904/DTD/svg10.dtd">
<svg version="1.0" xmlns="http://www.w3.org/2000/svg"
 viewBox="0 0 760.000000 1280.000000"
 preserveAspectRatio="xMidYMid meet">
<metadata>
Created by potrace 1.15, written by Peter Selinger 2001-2017
</metadata>
<g transform="translate(0.000000,1280.000000) scale(0.100000,-0.100000)"
fill="#4f6d7a" stroke="none">
<path d="M3190 12790 c-189 -27 -347 -73 -510 -151 -647 -309 -1013 -1012
-895 -1719 109 -660 610 -1180 1270 -1320 129 -27 388 -38 518 -21 370 49 677
201 943 466 233 232 373 489 445 817 26 121 37 391 20 521 -73 549 -411 1019
-906 1257 -214 103 -408 149 -655 155 -91 2 -194 0 -230 -5z"/>
<path d="M1692 9574 c-676 -98 -1116 -658 -1421 -1809 -259 -978 -332 -1780
-215 -2370 112 -568 411 -957 870 -1133 144 -55 296 -89 446 -99 l101 -6 111
-80 c660 -472 1061 -1134 1116 -1844 28 -359 -49 -709 -224 -1017 -42 -73 -60
-95 -102 -122 -65 -42 -100 -83 -135 -159 -23 -51 -27 -71 -24 -125 5 -84 35
-178 82 -260 48 -83 215 -251 313 -317 237 -158 513 -243 744 -230 167 10 275
54 359 147 161 179 68 479 -225 722 -169 141 -416 255 -610 283 l-47 7 16 31
c63 123 146 402 175 587 20 133 17 538 -5 673 -79 468 -267 888 -569 1270 -82
103 -361 389 -452 464 l-50 40 96 46 c53 25 117 59 142 76 l46 32 97 -26 c433
-116 861 -307 1198 -536 631 -428 1059 -1041 1195 -1711 11 -54 10 -58 -19
-110 -210 -371 354 -745 984 -653 158 23 299 70 412 136 76 45 172 141 208
209 27 49 30 64 30 145 0 108 -20 156 -99 243 -162 178 -451 272 -796 259
-148 -5 -245 -21 -347 -57 -31 -11 -58 -20 -59 -20 -1 0 -8 24 -14 53 -7 28
-27 97 -45 152 -319 982 -1135 1747 -2271 2127 l-183 61 43 56 c311 404 551
1076 736 2061 80 424 110 688 119 1031 l6 256 175 -114 c1005 -654 1989 -1282
2205 -1407 l31 -18 -4 -92 c-9 -211 95 -385 287 -478 78 -38 92 -42 187 -46
84 -4 114 -1 171 16 366 112 482 570 212 839 -168 169 -420 198 -623 73 l-48
-30 -237 147 c-609 379 -1678 1066 -2368 1523 -38 26 -54 43 -58 65 -10 45
-54 184 -65 206 -12 22 -14 22 85 9 537 -72 891 -101 1840 -150 573 -29 1347
-77 1401 -85 22 -4 39 -17 57 -43 61 -92 173 -173 284 -207 70 -21 217 -19
284 4 94 32 142 62 210 130 197 198 198 507 2 705 -202 204 -515 205 -718 1
-57 -58 -113 -151 -129 -217 -8 -33 -9 -33 -216 -18 -211 15 -843 51 -1215 70
-956 48 -1360 84 -1992 178 l-121 18 -77 72 c-218 203 -486 316 -869 367 -140
18 -297 18 -424 -1z"/>
</g>
</svg>
