<svg id="visual" viewBox="0 0 900 150" width="900" height="150" xmlns="http://www.w3.org/2000/svg" xmlns:xlink="http://www.w3.org/1999/xlink" version="1.1"><rect x="0" y="0" width="900" height="150" fill="#2c102d"></rect><path d="M0 99L10.7 100.7C21.3 102.3 42.7 105.7 64.2 106C85.7 106.3 107.3 103.7 128.8 103.8C150.3 104 171.7 107 193 102.2C214.3 97.3 235.7 84.7 257 83.8C278.3 83 299.7 94 321.2 95C342.7 96 364.3 87 385.8 79.3C407.3 71.7 428.7 65.3 450 69.8C471.3 74.3 492.7 89.7 514.2 91.5C535.7 93.3 557.3 81.7 578.8 82.8C600.3 84 621.7 98 643 99.7C664.3 101.3 685.7 90.7 707 87.3C728.3 84 749.7 88 771.2 85.8C792.7 83.7 814.3 75.3 835.8 72C857.3 68.7 878.7 70.3 889.3 71.2L900 72L900 151L889.3 151C878.7 151 857.3 151 835.8 151C814.3 151 792.7 151 771.2 151C749.7 151 728.3 151 707 151C685.7 151 664.3 151 643 151C621.7 151 600.3 151 578.8 151C557.3 151 535.7 151 514.2 151C492.7 151 471.3 151 450 151C428.7 151 407.3 151 385.8 151C364.3 151 342.7 151 321.2 151C299.7 151 278.3 151 257 151C235.7 151 214.3 151 193 151C171.7 151 150.3 151 128.8 151C107.3 151 85.7 151 64.2 151C42.7 151 21.3 151 10.7 151L0 151Z" fill="#2c102d"></path><path d="M0 91L10.7 96C21.3 101 42.7 111 64.2 111.7C85.7 112.3 107.3 103.7 128.8 102.8C150.3 102 171.7 109 193 112C214.3 115 235.7 114 257 107.5C278.3 101 299.7 89 321.2 88.8C342.7 88.7 364.3 100.3 385.8 106C407.3 111.7 428.7 111.3 450 112.3C471.3 113.3 492.7 115.7 514.2 111.2C535.7 106.7 557.3 95.3 578.8 88.8C600.3 82.3 621.7 80.7 643 81.3C664.3 82 685.7 85 707 89.5C728.3 94 749.7 100 771.2 104C792.7 108 814.3 110 835.8 110.2C857.3 110.3 878.7 108.7 889.3 107.8L900 107L900 151L889.3 151C878.7 151 857.3 151 835.8 151C814.3 151 792.7 151 771.2 151C749.7 151 728.3 151 707 151C685.7 151 664.3 151 643 151C621.7 151 600.3 151 578.8 151C557.3 151 535.7 151 514.2 151C492.7 151 471.3 151 450 151C428.7 151 407.3 151 385.8 151C364.3 151 342.7 151 321.2 151C299.7 151 278.3 151 257 151C235.7 151 214.3 151 193 151C171.7 151 150.3 151 128.8 151C107.3 151 85.7 151 64.2 151C42.7 151 21.3 151 10.7 151L0 151Z" fill="#25102a"></path><path d="M0 116L10.7 117.3C21.3 118.7 42.7 121.3 64.2 118.8C85.7 116.3 107.3 108.7 128.8 109.5C150.3 110.3 171.7 119.7 193 121C214.3 122.3 235.7 115.7 257 111.8C278.3 108 299.7 107 321.2 109.2C342.7 111.3 364.3 116.7 385.8 118.8C407.3 121 428.7 120 450 116.7C471.3 113.3 492.7 107.7 514.2 107.8C535.7 108 557.3 114 578.8 118.3C600.3 122.7 621.7 125.3 643 125.3C664.3 125.3 685.7 122.7 707 118.3C728.3 114 749.7 108 771.2 106.2C792.7 104.3 814.3 106.7 835.8 109C857.3 111.3 878.7 113.7 889.3 114.8L900 116L900 151L889.3 151C878.7 151 857.3 151 835.8 151C814.3 151 792.7 151 771.2 151C749.7 151 728.3 151 707 151C685.7 151 664.3 151 643 151C621.7 151 600.3 151 578.8 151C557.3 151 535.7 151 514.2 151C492.7 151 471.3 151 450 151C428.7 151 407.3 151 385.8 151C364.3 151 342.7 151 321.2 151C299.7 151 278.3 151 257 151C235.7 151 214.3 151 193 151C171.7 151 150.3 151 128.8 151C107.3 151 85.7 151 64.2 151C42.7 151 21.3 151 10.7 151L0 151Z" fill="#1f1027"></path><path d="M0 116L10.7 116.7C21.3 117.3 42.7 118.7 64.2 121.7C85.7 124.7 107.3 129.3 128.8 132.5C150.3 135.7 171.7 137.3 193 136.5C214.3 135.7 235.7 132.3 257 129.7C278.3 127 299.7 125 321.2 123.5C342.7 122 364.3 121 385.8 123.3C407.3 125.7 428.7 131.3 450 132.8C471.3 134.3 492.7 131.7 514.2 130.3C535.7 129 557.3 129 578.8 131C600.3 133 621.7 137 643 136.7C664.3 136.3 685.7 131.7 707 131C728.3 130.3 749.7 133.7 771.2 133.5C792.7 133.3 814.3 129.7 835.8 126.3C857.3 123 878.7 120 889.3 118.5L900 117L900 151L889.3 151C878.7 151 857.3 151 835.8 151C814.3 151 792.7 151 771.2 151C749.7 151 728.3 151 707 151C685.7 151 664.3 151 643 151C621.7 151 600.3 151 578.8 151C557.3 151 535.7 151 514.2 151C492.7 151 471.3 151 450 151C428.7 151 407.3 151 385.8 151C364.3 151 342.7 151 321.2 151C299.7 151 278.3 151 257 151C235.7 151 214.3 151 193 151C171.7 151 150.3 151 128.8 151C107.3 151 85.7 151 64.2 151C42.7 151 21.3 151 10.7 151L0 151Z" fill="#1a0f24"></path></svg>