<svg id="visual" viewBox="0 0 900 150" width="900" height="150" xmlns="http://www.w3.org/2000/svg" xmlns:xlink="http://www.w3.org/1999/xlink" version="1.1"><rect x="0" y="0" width="900" height="150" fill="#64437c"></rect><path d="M0 86L16.7 85.8C33.3 85.7 66.7 85.3 100 87.3C133.3 89.3 166.7 93.7 200 94C233.3 94.3 266.7 90.7 300 92.3C333.3 94 366.7 101 400 107C433.3 113 466.7 118 500 114C533.3 110 566.7 97 600 90.7C633.3 84.3 666.7 84.7 700 85.8C733.3 87 766.7 89 800 91.7C833.3 94.3 866.7 97.7 883.3 99.3L900 101L900 0L883.3 0C866.7 0 833.3 0 800 0C766.7 0 733.3 0 700 0C666.7 0 633.3 0 600 0C566.7 0 533.3 0 500 0C466.7 0 433.3 0 400 0C366.7 0 333.3 0 300 0C266.7 0 233.3 0 200 0C166.7 0 133.3 0 100 0C66.7 0 33.3 0 16.7 0L0 0Z" fill="#64437c"></path><path d="M0 87L16.7 89.5C33.3 92 66.7 97 100 99.3C133.3 101.7 166.7 101.3 200 100.2C233.3 99 266.7 97 300 91.2C333.3 85.3 366.7 75.7 400 70.7C433.3 65.7 466.7 65.3 500 67.7C533.3 70 566.7 75 600 77.8C633.3 80.7 666.7 81.3 700 78.8C733.3 76.3 766.7 70.7 800 73.7C833.3 76.7 866.7 88.3 883.3 94.2L900 100L900 0L883.3 0C866.7 0 833.3 0 800 0C766.7 0 733.3 0 700 0C666.7 0 633.3 0 600 0C566.7 0 533.3 0 500 0C466.7 0 433.3 0 400 0C366.7 0 333.3 0 300 0C266.7 0 233.3 0 200 0C166.7 0 133.3 0 100 0C66.7 0 33.3 0 16.7 0L0 0Z" fill="#573566"></path><path d="M0 54L16.7 53.7C33.3 53.3 66.7 52.7 100 52.8C133.3 53 166.7 54 200 57.5C233.3 61 266.7 67 300 67.3C333.3 67.7 366.7 62.3 400 58.7C433.3 55 466.7 53 500 53.7C533.3 54.3 566.7 57.7 600 59.5C633.3 61.3 666.7 61.7 700 63C733.3 64.3 766.7 66.7 800 67.5C833.3 68.3 866.7 67.7 883.3 67.3L900 67L900 0L883.3 0C866.7 0 833.3 0 800 0C766.7 0 733.3 0 700 0C666.7 0 633.3 0 600 0C566.7 0 533.3 0 500 0C466.7 0 433.3 0 400 0C366.7 0 333.3 0 300 0C266.7 0 233.3 0 200 0C166.7 0 133.3 0 100 0C66.7 0 33.3 0 16.7 0L0 0Z" fill="#492852"></path><path d="M0 43L16.7 44.7C33.3 46.3 66.7 49.7 100 48.2C133.3 46.7 166.7 40.3 200 37.5C233.3 34.7 266.7 35.3 300 37.3C333.3 39.3 366.7 42.7 400 45.8C433.3 49 466.7 52 500 49.3C533.3 46.7 566.7 38.3 600 35.2C633.3 32 666.7 34 700 37C733.3 40 766.7 44 800 43.2C833.3 42.3 866.7 36.7 883.3 33.8L900 31L900 0L883.3 0C866.7 0 833.3 0 800 0C766.7 0 733.3 0 700 0C666.7 0 633.3 0 600 0C566.7 0 533.3 0 500 0C466.7 0 433.3 0 400 0C366.7 0 333.3 0 300 0C266.7 0 233.3 0 200 0C166.7 0 133.3 0 100 0C66.7 0 33.3 0 16.7 0L0 0Z" fill="#3b1c3f"></path><path d="M0 33L16.7 30.8C33.3 28.7 66.7 24.3 100 23.5C133.3 22.7 166.7 25.3 200 24.2C233.3 23 266.7 18 300 15.5C333.3 13 366.7 13 400 13.5C433.3 14 466.7 15 500 17.2C533.3 19.3 566.7 22.7 600 24.5C633.3 26.3 666.7 26.7 700 25.7C733.3 24.7 766.7 22.3 800 23C833.3 23.7 866.7 27.3 883.3 29.2L900 31L900 0L883.3 0C866.7 0 833.3 0 800 0C766.7 0 733.3 0 700 0C666.7 0 633.3 0 600 0C566.7 0 533.3 0 500 0C466.7 0 433.3 0 400 0C366.7 0 333.3 0 300 0C266.7 0 233.3 0 200 0C166.7 0 133.3 0 100 0C66.7 0 33.3 0 16.7 0L0 0Z" fill="#2c102d"></path></svg>
