<svg id="visual" preserveAspectRatio="none" viewBox="0 0 1920 993" xmlns="http://www.w3.org/2000/svg" xmlns:xlink="http://www.w3.org/1999/xlink" version="1.1"><rect x="0" y="0" width="1920" height="1080" fill="#1A0F24"></rect><defs><linearGradient id="grad1_0" x1="43.8%" y1="100%" x2="100%" y2="0%"><stop offset="14.444444444444446%" stop-color="#1a0f24" stop-opacity="1"></stop><stop offset="85.55555555555554%" stop-color="#1a0f24" stop-opacity="1"></stop></linearGradient></defs><defs><linearGradient id="grad2_0" x1="0%" y1="100%" x2="56.3%" y2="0%"><stop offset="14.444444444444446%" stop-color="#1a0f24" stop-opacity="1"></stop><stop offset="85.55555555555554%" stop-color="#1a0f24" stop-opacity="1"></stop></linearGradient></defs><g transform="translate(1920, 1080)"><path d="M-361 0C-326 -48.8 -291.1 -97.6 -266.7 -154C-242.4 -210.4 -228.7 -274.6 -186 -322.2C-143.3 -369.8 -71.7 -400.9 0 -432L0 0Z" fill="#2c102d"></path></g><g transform="translate(0, 0)"><path d="M432 0C371.2 52.3 310.3 104.7 270.2 156C230.1 207.3 210.6 257.6 169 292.7C127.4 327.9 63.7 347.9 0 368L0 0Z" fill="#2c102d"></path></g></svg>